<?xml version="1.0" encoding="UTF-8"?>
<svg width="29px" height="30px" viewBox="0 0 29 30" version="1.1" xmlns="http://www.w3.org/2000/svg" xmlns:xlink="http://www.w3.org/1999/xlink">
    <!-- Generator: Sketch 51.2 (57519) - http://www.bohemiancoding.com/sketch -->
    <title>logo round 1</title>
    <desc>Created with Sketch.</desc>
    <defs></defs>
    <g id="Page-1" stroke="none" stroke-width="1" fill="none" fill-rule="evenodd">
        <g id="Landing" transform="translate(-429.000000, -969.000000)" fill-rule="nonzero">
            <g id="06-Testimonials" transform="translate(0.000000, 743.000000)">
                <g id="Testimotial" transform="translate(407.000000, 66.000000)">
                    <g id="logo-round-1" transform="translate(20.000000, 154.000000)">
                        <g id="logo">
                            <g id="Group-39" fill="#FFFFFF">
                                <ellipse id="Oval-2-Copy" cx="20.8157677" cy="22.1885246" rx="10.0448597" ry="10.021786"></ellipse>
                                <path d="M13.7139921,27.0690578 L18.0358882,31.4856989 C18.5784816,32.0401872 18.5681194,32.9288447 18.0127434,33.4705708 C17.7500967,33.7267623 17.3974798,33.8701924 17.030291,33.8701924 L4.20960609,33.8701924 C3.43317182,33.8701924 2.80374748,33.2417741 2.80374748,32.466581 C2.80374748,32.4656071 2.80374849,32.4646333 2.80375052,32.4636596 L2.82792389,20.8681134 C2.81065825,20.6594486 2.80185384,20.4483891 2.80185384,20.2352778 C2.80185384,20.2352778 2.80185384,20.2352778 2.80185384,20.2352778 C2.80185384,20.0112477 2.81157847,19.7894856 2.83062927,19.5703888 L2.83100579,19.3897713 C2.83136146,19.2191651 2.86218928,19.0557314 2.91833601,18.904594 C3.54840042,15.3485391 6.6591208,12.6475868 10.4016923,12.6475868 C10.4030094,12.6475868 10.4043265,12.6475868 10.4056435,12.6475868 C14.6051006,12.6475868 18.0094332,16.0447117 18.0094332,20.2352778 C18.0094332,23.2425997 16.2561726,25.8412927 13.7139921,27.0690578 Z" id="Combined-Shape-Copy" transform="translate(10.619002, 23.258890) rotate(-14.000000) translate(-10.619002, -23.258890) "></path>
                                <path d="M18.5716447,13.1968114 L18.5716447,20.4346852 C18.5716447,23.4141235 16.152466,25.8294355 13.1682578,25.8294355 C10.1840495,25.8294355 7.76487077,23.4141235 7.76487077,20.4346852 L7.76487077,7.12960422 C7.73489581,6.85901681 7.71950711,6.58403974 7.71950711,6.30547419 C7.71950711,6.01520946 7.73621555,5.72884097 7.76872456,5.44727512 C7.80823288,4.39485149 8.14969787,3.41954723 8.70913433,2.60521324 C9.99208851,0.385736054 12.3937584,-1.108023 15.144873,-1.108023 L15.8288788,-1.108023 C19.9297951,-1.108023 23.2542447,2.21111275 23.2542447,6.30547419 C23.2542447,9.43259869 21.3149772,12.1075069 18.5716448,13.1968107 L18.5716447,13.1968114 Z" id="Combined-Shape-Copy-2" transform="translate(15.486876, 12.360706) rotate(-112.000000) translate(-15.486876, -12.360706) "></path>
                            </g>
                            <ellipse id="Oval-2-Copy" fill="#FFD740" style="mix-blend-mode: multiply;" cx="20.8157677" cy="22.1885246" rx="10.0448597" ry="10.021786"></ellipse>
                            <path d="M13.7139921,27.0690578 L18.0358882,31.4856989 C18.5784816,32.0401872 18.5681194,32.9288447 18.0127434,33.4705708 C17.7500967,33.7267623 17.3974798,33.8701924 17.030291,33.8701924 L4.20960609,33.8701924 C3.43317182,33.8701924 2.80374748,33.2417741 2.80374748,32.466581 C2.80374748,32.4656071 2.80374849,32.4646333 2.80375052,32.4636596 L2.82792389,20.8681134 C2.81065825,20.6594486 2.80185384,20.4483891 2.80185384,20.2352778 C2.80185384,20.2352778 2.80185384,20.2352778 2.80185384,20.2352778 C2.80185384,20.0112477 2.81157847,19.7894856 2.83062927,19.5703888 L2.83100579,19.3897713 C2.83136146,19.2191651 2.86218928,19.0557314 2.91833601,18.904594 C3.54840042,15.3485391 6.6591208,12.6475868 10.4016923,12.6475868 C10.4030094,12.6475868 10.4043265,12.6475868 10.4056435,12.6475868 C14.6051006,12.6475868 18.0094332,16.0447117 18.0094332,20.2352778 C18.0094332,23.2425997 16.2561726,25.8412927 13.7139921,27.0690578 Z" id="Combined-Shape-Copy" fill="#FF4081" style="mix-blend-mode: multiply;" transform="translate(10.619002, 23.258890) rotate(-14.000000) translate(-10.619002, -23.258890) "></path>
                            <path d="M18.5716447,13.1968114 L18.5716447,20.4346852 C18.5716447,23.4141235 16.152466,25.8294355 13.1682578,25.8294355 C10.1840495,25.8294355 7.76487077,23.4141235 7.76487077,20.4346852 L7.76487077,7.12960422 C7.73489581,6.85901681 7.71950711,6.58403974 7.71950711,6.30547419 C7.71950711,6.01520946 7.73621555,5.72884097 7.76872456,5.44727512 C7.80823288,4.39485149 8.14969787,3.41954723 8.70913433,2.60521324 C9.99208851,0.385736054 12.3937584,-1.108023 15.144873,-1.108023 L15.8288788,-1.108023 C19.9297951,-1.108023 23.2542447,2.21111275 23.2542447,6.30547419 C23.2542447,9.43259869 21.3149772,12.1075069 18.5716448,13.1968107 L18.5716447,13.1968114 Z" id="Combined-Shape-Copy-2" fill="#40C4FF" style="mix-blend-mode: multiply;" transform="translate(15.486876, 12.360706) rotate(-112.000000) translate(-15.486876, -12.360706) "></path>
                        </g>
                    </g>
                </g>
            </g>
        </g>
    </g>
</svg>