<?xml version="1.0" encoding="UTF-8"?>
<svg width="18px" height="13px" viewBox="0 0 18 13" version="1.1" xmlns="http://www.w3.org/2000/svg" xmlns:xlink="http://www.w3.org/1999/xlink">
    <!-- Generator: Sketch 51.2 (57519) - http://www.bohemiancoding.com/sketch -->
    <title>cloud-download - FontAwesome</title>
    <desc>Created with Sketch.</desc>
    <defs></defs>
    <g id="Page-1" stroke="none" stroke-width="1" fill="none" fill-rule="evenodd">
        <g id="Landing" transform="translate(-422.000000, -411.000000)" fill="#FFFFFF">
            <g id="1-Welcome-screen" transform="translate(0.000000, 76.000000)">
                <g id="Group-9" transform="translate(167.000000, 222.000000)">
                    <g id="BTN" transform="translate(48.000000, 92.000000)">
                        <g id="2" transform="translate(192.000000, 0.000000)">
                            <path d="M26.4285851,28.1428657 C26.4285851,27.9821512 26.3035849,27.857151 26.1428704,27.857151 L24.142868,27.857151 L24.142868,24.7142901 C24.142868,24.5625042 24.0089393,24.4285755 23.8571534,24.4285755 L22.1428657,24.4285755 C21.9910798,24.4285755 21.857151,24.5625042 21.857151,24.7142901 L21.857151,27.857151 L19.8571486,27.857151 C19.6964342,27.857151 19.571434,27.9910798 19.571434,28.1428657 C19.571434,28.2142943 19.5982198,28.2946516 19.6517913,28.348223 L22.7946521,31.4910839 C22.8482236,31.5446554 22.9196523,31.5714412 23.0000095,31.5714412 C23.0714382,31.5714412 23.1517954,31.5446554 23.2053669,31.4910839 L26.3392992,28.3571516 C26.3928707,28.2946516 26.4285851,28.2232229 26.4285851,28.1428657 Z M32.1428776,30.142868 C32.1428776,32.0357274 30.6071615,33.5714436 28.7143021,33.5714436 L19.0000048,33.5714436 C16.794645,33.5714436 15,31.7767986 15,29.5714388 C15,28.0178655 15.9017868,26.6071495 17.3035742,25.9553631 C17.2946456,25.8214343 17.285717,25.6964342 17.285717,25.571434 C17.285717,23.0446453 19.3303623,21 21.857151,21 C23.7142961,21 25.383941,22.1250013 26.0892989,23.8392891 C26.5000137,23.4821458 27.0268001,23.285717 27.5714436,23.285717 C28.8303736,23.285717 29.8571606,24.3125039 29.8571606,25.571434 C29.8571606,26.0089345 29.7321604,26.4375065 29.4910887,26.8035783 C31.044662,27.1696502 32.1428776,28.5535804 32.1428776,30.142868 Z" id="cloud-download---FontAwesome"></path>
                        </g>
                    </g>
                </g>
            </g>
        </g>
    </g>
</svg>