<?xml version="1.0" encoding="UTF-8"?>
<svg width="17px" height="13px" viewBox="0 0 17 13" version="1.1" xmlns="http://www.w3.org/2000/svg" xmlns:xlink="http://www.w3.org/1999/xlink">
    <!-- Generator: Sketch 51.2 (57519) - http://www.bohemiancoding.com/sketch -->
    <title>Combined Shape</title>
    <desc>Created with Sketch.</desc>
    <defs></defs>
    <g id="Page-1" stroke="none" stroke-width="1" fill="none" fill-rule="evenodd">
        <g id="Landing" transform="translate(-1176.000000, -1050.000000)" fill="#FFFFFF" fill-rule="nonzero">
            <g id="06-Testimonials" transform="translate(0.000000, 743.000000)">
                <g id="listen" transform="translate(952.000000, 288.000000)">
                    <g id="btn_next" transform="translate(166.000000, 0.000000)">
                        <path d="M71.2176514,26.3882622 L59,26.3882622 C58.4477153,26.3882622 58,25.9405469 58,25.3882622 C58,24.8359774 58.4477153,24.3882622 59,24.3882622 L71.1784088,24.3882622 L67.4972534,20.7071068 C67.1067291,20.3165825 67.1067291,19.6834175 67.4972534,19.2928932 C67.8877777,18.9023689 68.5209427,18.9023689 68.911467,19.2928932 L74.2901466,24.6715729 C74.3142259,24.6956522 74.3368205,24.7206539 74.3579304,24.7464644 C74.707043,25.1391707 74.6934099,25.7409308 74.3170311,26.1173096 L68.9383514,31.4959892 C68.5478271,31.8865135 67.9146622,31.8865135 67.5241379,31.4959892 C67.1336136,31.1054649 67.1336136,30.4723 67.5241379,30.0817757 L71.2176514,26.3882622 Z" id="Combined-Shape"></path>
                    </g>
                </g>
            </g>
        </g>
    </g>
</svg>