<?xml version="1.0" encoding="UTF-8"?>
<svg width="18px" height="18px" viewBox="0 0 18 18" version="1.1" xmlns="http://www.w3.org/2000/svg" xmlns:xlink="http://www.w3.org/1999/xlink">
    <!-- Generator: Sketch 51.2 (57519) - http://www.bohemiancoding.com/sketch -->
    <title>Telegram</title>
    <desc>Created with Sketch.</desc>
    <defs></defs>
    <g id="Page-1" stroke="none" stroke-width="1" fill="none" fill-rule="evenodd">
        <g id="Landing" transform="translate(-814.000000, -2261.000000)" fill="#9BABB8">
            <g id="Pre_footer" transform="translate(-1.000000, 2222.000000)">
                <g id="Group-4" transform="translate(532.000000, 36.000000)">
                    <g id="Social/Github" transform="translate(280.000000, 0.000000)">
                        <path d="M12,3 C16.96875,3 21,7.03125 21,12 C21,15.9726563 18.421875,19.3476563 14.8476562,20.5429688 C14.390625,20.625 14.2265625,20.34375 14.2265625,20.109375 C14.2265625,19.8164063 14.2382812,18.84375 14.2382812,17.6367188 C14.2382812,16.7929688 13.9570312,16.2539063 13.6289062,15.9726563 C15.6328125,15.75 17.7421875,14.9882813 17.7421875,11.53125 C17.7421875,10.546875 17.390625,9.75 16.8164062,9.1171875 C16.9101562,8.8828125 17.2148438,7.96875 16.7226562,6.7265625 C15.9726562,6.4921875 14.25,7.65234375 14.25,7.65234375 C13.5351562,7.453125 12.7617188,7.34765625 12,7.34765625 C11.2382812,7.34765625 10.4648438,7.453125 9.75,7.65234375 C9.75,7.65234375 8.02734375,6.4921875 7.27734375,6.7265625 C6.78515625,7.96875 7.08984375,8.8828125 7.18359375,9.1171875 C6.609375,9.75 6.2578125,10.546875 6.2578125,11.53125 C6.2578125,14.9765625 8.35546875,15.75 10.359375,15.9726563 C10.1015625,16.2070313 9.8671875,16.6054688 9.78515625,17.1796875 C9.26953125,17.4140625 7.95703125,17.8125 7.171875,16.4296875 C6.6796875,15.5742188 5.7890625,15.5039063 5.7890625,15.5039063 C4.91015625,15.4921875 5.73046875,16.0546875 5.73046875,16.0546875 C6.31640625,16.3242188 6.7265625,17.3671875 6.7265625,17.3671875 C7.25390625,18.9726563 9.76171875,18.4335938 9.76171875,18.4335938 C9.76171875,19.1835938 9.7734375,19.8867188 9.7734375,20.109375 C9.7734375,20.34375 9.609375,20.625 9.15234375,20.5429688 C5.578125,19.3476563 3,15.9726563 3,12 C3,7.03125 7.03125,3 12,3 Z M6.41015625,15.9257813 C6.38671875,15.9726563 6.31640625,15.984375 6.2578125,15.9492188 C6.1875,15.9140625 6.15234375,15.8554688 6.17578125,15.8085938 C6.19921875,15.7734375 6.2578125,15.7617188 6.328125,15.7851563 C6.3984375,15.8203125 6.43359375,15.8789063 6.41015625,15.9257813 Z M6.7734375,16.3242188 C6.7265625,16.3710938 6.64453125,16.3476562 6.5859375,16.2890625 C6.52734375,16.21875 6.515625,16.1367188 6.5625,16.1015625 C6.609375,16.0546875 6.69140625,16.078125 6.75,16.1367188 C6.80859375,16.2070312 6.8203125,16.2890625 6.7734375,16.3242188 Z M7.125,16.8515625 C7.078125,16.8867188 6.984375,16.8515625 6.92578125,16.7695313 C6.8671875,16.6875 6.8671875,16.59375 6.92578125,16.5585938 C6.984375,16.5117188 7.078125,16.546875 7.125,16.6289063 C7.18359375,16.7109375 7.18359375,16.8046875 7.125,16.8515625 Z M7.6171875,17.34375 C7.5703125,17.4023438 7.46484375,17.390625 7.3828125,17.3085938 C7.30078125,17.2382812 7.27734375,17.1328125 7.3359375,17.0859375 C7.3828125,17.0273438 7.48828125,17.0390625 7.5703125,17.1210938 C7.640625,17.1914062 7.6640625,17.296875 7.6171875,17.34375 Z M8.28515625,17.6367188 C8.26171875,17.7070312 8.15625,17.7421875 8.0625,17.7070312 C7.95703125,17.6835938 7.88671875,17.6015625 7.91015625,17.53125 C7.93359375,17.4609375 8.0390625,17.4257812 8.1328125,17.4492188 C8.23828125,17.484375 8.30859375,17.5664062 8.28515625,17.6367188 Z M9.0234375,17.6953125 C9.0234375,17.765625 8.94140625,17.8242188 8.8359375,17.8242188 C8.71875,17.8359375 8.63671875,17.7773438 8.63671875,17.6953125 C8.63671875,17.625 8.71875,17.5664063 8.82421875,17.5664063 C8.9296875,17.5546875 9.0234375,17.6132813 9.0234375,17.6953125 Z M9.703125,17.578125 C9.71484375,17.6484375 9.64453125,17.71875 9.5390625,17.7421875 C9.43359375,17.765625 9.33984375,17.71875 9.328125,17.6484375 C9.31640625,17.5664062 9.38671875,17.4960938 9.4921875,17.4726562 C9.59765625,17.4609375 9.69140625,17.5078125 9.703125,17.578125 Z" id="github---FontAwesome"></path>
                    </g>
                </g>
            </g>
        </g>
    </g>
</svg>